PathFileType	3	(X/Y/Z)	feet_movements_1__fused_aligned.trc
DataRate	CameraRate	NumFrames	NumMarkers	Units	OrigDataRate	OrigDataStartFrame	OrigNumFrames
100.0	100.0	7	19	mm	100.0	638	1830
Frame#	Time	pelvis			neck			head			hip_left			hip_right			knee_left			knee_right			ankle_left			ankle_right			heel_left			heel_right			toe_left			toe_right			shoulder_left			shoulder_right			elbow_left			elbow_right			wrist_left			wrist_right			
		X1	Y1	Z1	X2	Y2	Z2	X3	Y3	Z3	X4	Y4	Z4	X5	Y5	Z5	X6	Y6	Z6	X7	Y7	Z7	X8	Y8	Z8	X9	Y9	Z9	X10	Y10	Z10	X11	Y11	Z11	X12	Y12	Z12	X13	Y13	Z13	X14	Y14	Z14	X15	Y15	Z15	X16	Y16	Z16	X17	Y17	Z17	X18	Y18	Z18	X19	Y19	Z19	
638	6.37000	66.494750	945.713117	379.478013	96.301679	1386.508632	674.326398	122.835775	1545.683765	636.485510	-0.786336	974.370677	349.565419	133.775871	917.055555	409.390682	31.523199	1130.499712	-55.987890	262.728509	531.408937	252.642440	13.510776	1119.587821	-464.316968	138.719769	165.011923	388.369166	4.836948	1080.807357	-504.966152	107.531564	129.595566	425.858496	64.119222	1279.612008	-568.236740	216.096345	63.113911	248.842946	-78.317203	1367.827210	630.298665	257.712563	1314.255360	728.643751	-237.866773	1196.217869	462.592581	389.502058	1104.373421	585.128932	-339.515710	1097.600515	254.241381	463.536812	1086.062415	344.903326
639	6.38000	65.432408	945.809177	378.628942	95.684234	1386.867601	672.440843	122.295705	1545.930616	634.064321	-1.809827	974.418045	348.681145	132.674745	917.200303	408.576806	29.507619	1129.150664	-57.501534	261.915213	531.727801	251.658521	9.771076	1116.618729	-465.728917	138.366454	165.048027	387.193410	0.776238	1077.582201	-505.994931	107.247429	129.550323	424.673077	60.473722	1275.333257	-571.564618	215.878731	63.372230	247.597808	-78.969214	1368.195945	628.546211	257.061284	1314.639412	726.940517	-238.634799	1196.111901	461.383256	388.769041	1104.699854	583.345334	-340.360340	1097.251442	253.251457	463.102171	1085.863372	343.244745
640	6.39000	64.370067	945.905237	377.779871	95.066789	1387.226570	670.555287	121.755635	1546.177467	631.643132	-2.833318	974.465413	347.796870	131.573620	917.345050	407.762930	27.492039	1127.801617	-59.015178	261.101917	532.046665	250.674603	6.031376	1113.649637	-467.140866	138.013140	165.084132	386.017653	-3.284472	1074.357044	-507.023709	106.963295	129.505080	423.487659	56.828222	1271.054505	-574.892496	215.661118	63.630548	246.352669	-79.621225	1368.564680	626.793757	256.410005	1315.023465	725.237282	-239.402825	1196.005933	460.173931	388.036023	1105.026286	581.561736	-341.204969	1096.902368	252.261534	462.667531	1085.664329	341.586165
641	6.40000	63.307725	946.001297	376.930800	94.449345	1387.585539	668.669732	121.215565	1546.424318	629.221943	-3.856809	974.512781	346.912596	130.472494	917.489798	406.949054	25.476459	1126.452569	-60.528823	260.288621	532.365529	249.690684	2.291676	1110.680545	-468.552815	137.659825	165.120237	384.841897	-7.345182	1071.131887	-508.052488	106.679161	129.459838	422.302240	53.182722	1266.775753	-578.220374	215.443504	63.888866	245.107530	-80.273236	1368.933415	625.041304	255.758726	1315.407517	723.534048	-240.170851	1195.899966	458.964606	387.303006	1105.352719	579.778137	-342.049599	1096.553295	251.271610	462.232891	1085.465285	339.927584
642	6.41000	62.587679	946.164969	375.981179	93.849614	1388.182075	666.585355	120.494465	1546.698342	626.341765	-4.477905	974.584507	345.915128	129.653481	917.745417	406.047257	24.136925	1124.733177	-62.121439	259.579932	532.756330	248.761291	-0.435501	1107.485067	-469.888723	137.821619	165.242363	383.491085	-10.325308	1067.674760	-508.951797	106.938619	129.499784	420.943233	50.325779	1262.156864	-581.565243	215.758457	64.219580	243.656213	-80.788884	1369.522848	623.008794	255.001191	1316.146367	721.859143	-240.621648	1195.872197	457.682631	386.719005	1106.086425	578.493303	-342.317869	1096.192393	250.313796	461.938233	1085.563320	338.876397
643	6.42000	61.867633	946.328641	375.031558	93.249884	1388.778610	664.500979	119.773366	1546.972367	623.461587	-5.099001	974.656234	344.917660	128.834468	918.001035	405.145460	22.797390	1123.013785	-63.714056	258.871244	533.147130	247.831897	-3.162679	1104.289589	-471.224631	137.983413	165.364490	382.140273	-13.305434	1064.217633	-509.851105	107.198077	129.539730	419.584225	47.468836	1257.537974	-584.910112	216.073409	64.550293	242.204896	-81.304533	1370.112282	620.976284	254.243656	1316.885217	720.184238	-241.072444	1195.844429	456.400656	386.135003	1106.820131	577.208468	-342.586139	1095.831490	249.355982	461.643575	1085.661355	337.825210
644	6.43000	61.147587	946.492313	374.081937	92.650154	1389.375146	662.416602	119.052266	1547.246391	620.581409	-5.720097	974.727960	343.920192	128.015455	918.256653	404.243663	21.457856	1121.294393	-65.306672	258.162555	533.537930	246.902503	-5.889857	1101.094110	-472.560539	138.145207	165.486616	380.789462	-16.285560	1060.760507	-510.750414	107.457534	129.579676	418.225217	44.611893	1252.919084	-588.254981	216.388361	64.881006	240.753578	-81.820181	1370.701716	618.943773	253.486121	1317.624068	718.509332	-241.523241	1195.816661	455.118680	385.551002	1107.553838	575.923633	-342.854410	1095.470587	248.398167	461.348917	1085.759389	336.774023
